<?xml version="1.0" standalone="no"?>
<!DOCTYPE svg PUBLIC "-//W3C//DTD SVG 20010904//EN"
 "http://www.w3.org/TR/2001/REC-SVG-20010904/DTD/svg10.dtd">
<svg version="1.0" xmlns="http://www.w3.org/2000/svg"
 width="1512.000000pt" height="1512.000000pt" viewBox="0 0 1512.000000 1512.000000"
 preserveAspectRatio="xMidYMid meet">

<g transform="translate(0.000000,1512.000000) scale(0.100000,-0.100000)"
fill="#C20114" fill-opacity="0.25" stroke="none">
<path d="M9044 15095 c34 -134 98 -453 106 -535 23 -243 -27 -425 -163 -595
-187 -232 -460 -376 -877 -461 -175 -36 -273 -45 -735 -64 -263 -11 -309 -19
-426 -81 -109 -57 -267 -232 -374 -417 -1 -1 -67 29 -146 67 -253 123 -381
155 -582 150 -116 -4 -126 -6 -192 -38 -206 -101 -302 -336 -250 -610 31 -161
114 -362 212 -516 101 -156 298 -370 471 -510 34 -28 62 -56 62 -64 0 -18 -82
-9 -220 24 -56 14 -106 25 -112 25 -18 0 1 -71 42 -156 30 -62 55 -96 105
-142 68 -64 186 -129 278 -154 26 -6 47 -17 47 -24 0 -13 -8 -15 -180 -40 -63
-9 -119 -20 -124 -25 -16 -14 124 -143 189 -175 83 -40 147 -38 285 9 58 21
108 37 111 37 3 0 -3 -39 -13 -87 -27 -128 -21 -251 15 -325 28 -57 104 -136
165 -171 l31 -18 6 28 c50 230 93 336 169 416 25 26 49 47 53 47 4 0 32 -49
60 -108 29 -60 75 -138 102 -174 72 -95 171 -163 171 -117 0 18 122 319 129
319 22 0 101 -85 153 -163 32 -49 72 -102 88 -117 37 -34 99 -65 110 -53 5 4
38 71 73 148 l65 140 111 3 110 3 111 -141 c61 -77 117 -140 125 -140 7 0 29
19 50 41 37 41 66 98 122 234 l29 70 229 48 c192 40 230 45 237 33 17 -31 220
-295 266 -345 l49 -55 30 22 c65 46 119 148 198 373 l48 136 60 7 c247 26 442
-16 530 -114 40 -45 143 -218 154 -259 9 -35 -158 -144 -282 -184 -161 -52
-297 -65 -885 -82 -288 -8 -552 -21 -630 -30 -386 -45 -705 -167 -935 -357
-86 -71 -201 -203 -249 -286 -10 -17 23 0 164 83 213 127 329 176 514 220 167
40 268 50 496 49 228 0 282 -5 730 -59 575 -70 661 -67 1003 41 48 15 90 24
94 21 12 -12 -53 -91 -118 -144 -86 -70 -178 -121 -372 -208 -419 -187 -904
-320 -1300 -356 -240 -22 -322 7 -516 181 -49 44 -93 80 -98 80 -22 0 -112
-178 -153 -304 l-22 -69 -82 7 c-182 15 -329 68 -405 146 -49 51 -110 169
-141 273 -13 43 -27 80 -31 83 -18 11 -96 -36 -142 -85 -98 -105 -187 -349
-187 -511 0 -89 25 -191 91 -376 l43 -121 -32 -114 c-53 -187 -42 -272 51
-402 41 -57 230 -247 246 -247 3 0 28 66 55 147 50 148 146 354 188 406 20 25
32 29 76 30 l53 2 39 -103 c84 -221 182 -340 363 -440 41 -23 59 -29 62 -20 2
7 6 81 8 163 3 125 8 160 27 209 34 88 77 129 171 166 122 47 114 50 152 -60
82 -237 194 -350 377 -379 36 -6 70 -11 76 -11 8 0 11 62 10 213 -1 230 5 262
59 333 44 57 56 52 108 -50 74 -143 103 -176 195 -224 79 -41 224 -83 335 -97
l55 -7 -28 107 c-58 214 -59 319 -3 429 27 54 80 126 92 126 4 0 28 -30 52
-66 84 -125 205 -189 404 -213 139 -16 345 -24 345 -14 0 11 -56 93 -130 189
-82 108 -104 157 -105 239 0 80 27 165 52 165 32 0 100 -50 165 -123 138 -154
414 -274 741 -321 108 -16 391 -20 452 -7 l30 6 -70 49 c-156 110 -203 147
-256 203 -68 71 -86 104 -105 191 -16 80 -18 112 -4 112 6 0 45 -29 87 -65
169 -144 377 -263 539 -306 60 -17 109 -22 204 -22 130 -1 198 11 296 54 l48
20 -90 58 c-177 117 -235 201 -242 354 -3 48 0 87 5 87 5 0 47 -16 93 -36 221
-93 454 -131 696 -113 179 13 396 69 524 134 l45 23 -27 11 c-356 137 -514
244 -592 398 -27 55 -23 60 62 78 144 32 276 66 600 156 577 162 829 205 1137
196 153 -5 267 -16 408 -42 l27 -4 0 214 0 214 -57 32 c-32 19 -132 68 -223
111 -90 42 -166 81 -168 86 -1 5 14 12 35 16 51 8 295 6 361 -3 l52 -7 0 358
c0 270 -3 358 -12 358 -6 0 -58 16 -115 37 -125 43 -129 56 -28 89 39 13 89
31 113 40 l42 16 0 185 0 185 -27 -6 c-57 -14 -256 -118 -370 -195 -65 -44
-190 -137 -278 -207 -188 -149 -283 -213 -420 -282 -307 -154 -674 -219 -1090
-193 -192 12 -245 20 -245 35 0 8 70 19 218 34 505 52 746 106 990 222 142 68
236 126 466 289 219 156 333 224 447 270 87 35 228 71 277 71 l32 0 0 176 0
177 -91 -6 c-117 -9 -286 -43 -519 -107 -101 -27 -193 -50 -202 -50 -39 0 -14
29 80 92 53 37 226 170 384 296 158 127 300 238 317 248 l31 18 0 258 c0 142
-4 258 -9 258 -10 0 -118 -45 -216 -90 -38 -18 -199 -100 -357 -182 -334 -174
-482 -242 -634 -291 -294 -95 -533 -131 -1107 -167 -376 -24 -397 -24 -397 -7
1 6 37 36 80 66 191 128 431 333 651 557 167 171 265 285 404 469 304 402 434
684 411 896 -10 94 -10 94 -113 92 -171 -1 -260 -53 -503 -288 -192 -186 -444
-409 -650 -574 -263 -212 -462 -344 -690 -460 -268 -137 -403 -174 -267 -73
309 230 621 689 755 1112 78 245 88 414 37 588 l-16 52 -68 0 c-37 0 -89 -7
-115 -16 -91 -31 -191 -192 -297 -479 -98 -269 -188 -404 -419 -636 -230 -231
-420 -365 -755 -535 -278 -140 -495 -222 -840 -315 -433 -116 -629 -239 -748
-468 -70 -133 -91 -229 -112 -499 -22 -275 -27 -304 -70 -362 -154 -210 -509
-396 -865 -453 -120 -19 -175 -22 -505 -22 -203 0 -401 4 -439 8 l-69 9 5 106
c7 137 -5 222 -40 285 -40 75 -80 89 -262 96 l-145 6 -12 50 c-60 240 -76 550
-39 713 10 45 21 82 24 82 3 0 68 -20 145 -45 694 -228 1387 -218 1906 26 266
125 462 311 585 554 70 139 104 284 113 474 9 175 2 168 -103 -104 -90 -229
-171 -352 -338 -512 -264 -253 -599 -392 -996 -413 -326 -17 -675 25 -977 116
-93 28 -279 98 -291 109 -6 5 29 67 78 140 89 131 187 203 319 231 42 9 184
18 386 24 354 10 462 22 670 74 568 141 916 390 1060 757 122 310 36 699 -221
994 -20 23 -24 25 -20 10z m4300 -1091 c20 -19 21 -71 2 -115 -8 -19 -44 -77
-81 -129 -199 -281 -458 -523 -756 -709 -220 -137 -739 -367 -739 -327 0 3 14
37 31 76 18 39 30 72 28 75 -2 2 -34 -5 -70 -15 -123 -34 -249 -50 -391 -50
-124 0 -139 2 -136 16 2 12 37 26 123 50 343 93 717 269 1060 497 195 130 385
281 644 512 61 55 126 108 144 118 40 22 120 23 141 1z m-7337 -1040 c41 -8
108 -27 147 -41 72 -26 355 -150 368 -162 4 -3 0 -69 -8 -146 -10 -93 -14
-202 -11 -325 3 -165 8 -206 42 -376 39 -197 41 -258 10 -300 -13 -18 -15 -18
-60 5 -62 33 -131 110 -185 209 -25 45 -58 106 -74 135 l-30 52 -12 -65 c-6
-36 -19 -109 -29 -162 -11 -63 -22 -98 -30 -98 -17 0 -213 219 -301 336 -136
182 -210 342 -241 521 -31 188 11 326 125 401 52 34 170 41 289 16z m4083 -58
c0 -12 -50 -75 -198 -248 -11 -13 14 -7 99 23 139 49 220 59 304 35 32 -10
133 -51 225 -91 249 -110 288 -120 448 -119 75 0 132 -3 132 -8 0 -17 -124
-140 -185 -183 -158 -112 -324 -161 -464 -135 -34 6 -102 29 -150 50 -296 130
-549 128 -812 -6 -68 -34 -74 -27 -60 76 15 109 56 192 143 285 96 102 199
178 357 262 142 75 161 82 161 59z m4290 -281 c0 -8 -4 -15 -10 -15 -17 0
-231 -106 -307 -152 -125 -75 -231 -167 -322 -277 -218 -265 -255 -300 -376
-357 -96 -46 -207 -73 -336 -80 -94 -6 -109 -5 -109 8 0 10 27 25 78 43 215
78 348 151 423 232 25 26 90 104 145 173 56 69 128 150 160 180 112 106 275
190 446 229 150 35 208 40 208 16z m-4336 -441 c39 -9 122 -40 185 -70 l113
-54 -4 -142 c-4 -133 -6 -147 -32 -198 -59 -114 -126 -174 -241 -216 -54 -20
-85 -24 -173 -24 -187 0 -276 39 -353 153 -31 48 -89 196 -89 230 0 15 34 5
110 -33 52 -26 93 -40 118 -40 50 0 117 36 156 83 25 31 30 47 30 91 1 44 -7
69 -44 141 -25 49 -47 93 -49 98 -5 14 182 1 273 -19z m1636 -29 c30 -9 113
-44 185 -77 134 -62 250 -98 316 -98 63 0 152 34 243 94 48 31 93 56 102 56
17 0 87 -34 127 -63 27 -18 28 -23 22 -71 -3 -28 -13 -76 -22 -105 -72 -262
-368 -510 -686 -575 -99 -21 -157 -21 -157 -1 0 8 6 15 14 15 8 0 53 11 101
25 258 75 466 238 572 448 39 78 66 148 59 154 -2 3 -63 -23 -134 -56 -241
-113 -307 -116 -511 -25 -197 88 -253 105 -362 111 -178 10 -308 -30 -402
-124 -63 -62 -92 -113 -113 -193 -14 -55 -15 -75 -5 -130 25 -133 67 -168 259
-215 114 -28 116 -28 166 32 56 67 72 154 37 206 -27 41 -89 80 -129 81 -54 2
-77 -37 -76 -125 0 -52 -3 -69 -13 -69 -25 0 -101 87 -114 129 -12 39 -11 44
17 83 16 23 46 55 67 72 52 42 148 49 224 16 137 -58 178 -183 109 -326 -66
-137 -157 -196 -313 -202 -182 -7 -331 69 -396 201 -24 50 -27 67 -27 159 0
82 5 117 23 168 70 196 253 364 453 415 78 19 287 14 364 -10z m2230 -333 c0
-4 -39 -50 -86 -100 -94 -101 -180 -167 -270 -209 l-59 -27 -317 -1 c-238 0
-318 3 -318 12 0 16 108 80 178 105 46 17 94 22 242 28 124 5 198 13 226 23
22 8 114 51 203 96 151 75 201 93 201 73z m960 -678 c67 -23 82 -54 27 -54
-52 0 -191 -26 -402 -75 -340 -79 -480 -95 -634 -71 -51 8 -98 19 -103 24 -15
15 0 32 28 32 14 0 141 30 282 66 363 93 427 104 602 100 111 -2 158 -7 200
-22z m-4155 -149 c55 -8 201 -32 325 -55 310 -56 430 -54 704 10 150 35 164
27 92 -55 -84 -95 -211 -153 -399 -181 -106 -16 -114 -19 -104 -35 7 -11 40
-25 87 -36 66 -16 120 -18 448 -16 264 1 372 -2 372 -10 0 -22 -54 -87 -104
-126 -70 -54 -183 -105 -297 -135 -83 -21 -132 -29 -316 -52 -24 -3 -43 -9
-43 -13 0 -12 104 -57 175 -77 108 -30 327 -30 572 0 304 37 403 43 403 25 0
-17 -309 -188 -446 -248 -215 -93 -373 -126 -571 -118 -88 3 -133 1 -133 -6 0
-6 11 -29 25 -52 43 -75 134 -120 367 -184 72 -20 130 -40 130 -46 -2 -15
-273 -64 -397 -71 -189 -11 -256 14 -408 151 -56 52 -104 89 -105 84 -6 -16
19 -110 44 -166 12 -29 55 -100 95 -158 39 -58 69 -109 65 -112 -15 -16 -300
64 -391 109 -72 35 -94 55 -151 130 -61 83 -62 105 -15 288 52 206 65 309 58
472 -9 232 -69 389 -216 573 -45 55 -81 106 -81 113 0 16 88 16 215 -3z m2889
-160 c130 -32 238 -82 457 -207 101 -58 203 -115 226 -126 113 -58 310 -121
376 -122 16 0 27 -5 27 -14 0 -15 -87 -26 -221 -26 -123 0 -189 25 -532 198
-199 100 -319 155 -377 171 -160 45 -370 38 -618 -20 -98 -23 -122 -24 -122
-6 0 16 182 104 280 137 98 33 133 38 276 39 109 1 148 -3 228 -24z m-3524
-1668 c0 -7 -57 -42 -127 -76 -561 -278 -1187 -411 -1940 -411 -164 0 -214 3
-211 12 3 7 54 20 129 31 878 128 1394 236 1864 387 214 69 285 83 285 57z"/>
<path d="M14540 9954 c-212 -14 -417 -50 -653 -116 -148 -41 -148 -41 -142
-67 10 -42 64 -152 92 -189 34 -45 121 -100 216 -137 42 -16 77 -33 77 -36 0
-4 -34 -30 -75 -59 -73 -50 -226 -127 -328 -165 -27 -10 -51 -24 -54 -31 -7
-20 32 -153 71 -237 59 -131 150 -260 265 -379 l55 -58 -48 -49 c-68 -69 -141
-105 -297 -146 -73 -20 -135 -38 -137 -40 -7 -6 83 -164 136 -240 27 -39 102
-126 165 -193 110 -116 156 -184 172 -253 6 -25 3 -28 -42 -45 -31 -12 -73
-19 -118 -19 -94 0 -148 31 -281 157 l-102 98 -6 -33 c-10 -53 12 -277 33
-347 27 -88 80 -172 154 -248 63 -65 113 -95 249 -152 83 -34 168 -92 168
-115 0 -19 -161 -29 -339 -21 l-144 7 7 -40 c22 -140 93 -238 276 -383 177
-141 290 -262 266 -285 -4 -5 -62 -8 -129 -7 -128 1 -164 8 -417 77 -69 19
-140 38 -158 42 l-32 7 20 -51 c121 -307 339 -516 698 -667 23 -10 41 -23 39
-28 -2 -6 -30 -17 -63 -24 -88 -19 -245 -8 -389 27 -66 16 -121 28 -123 27 -5
-6 121 -171 172 -225 101 -106 263 -215 404 -271 34 -14 61 -29 59 -35 -7 -21
-102 -36 -202 -32 -119 6 -189 27 -399 122 -79 36 -149 65 -155 65 -17 0 -8
-26 55 -159 151 -318 352 -509 621 -593 40 -12 72 -27 70 -33 -2 -5 -34 -20
-72 -33 -55 -19 -92 -24 -175 -24 -90 0 -265 20 -322 38 -51 16 27 -133 116
-221 103 -102 226 -149 424 -161 68 -5 102 -11 102 -19 0 -14 -65 -62 -130
-96 -38 -20 -59 -24 -140 -24 -109 0 -160 15 -351 101 -65 30 -121 54 -125 54
-14 0 7 -145 32 -219 38 -115 99 -214 184 -300 121 -121 243 -181 399 -197 39
-3 71 -10 71 -15 0 -14 -82 -78 -129 -101 -56 -27 -180 -36 -260 -18 -43 9
-161 59 -253 108 -13 6 44 -163 77 -230 45 -90 84 -145 144 -203 53 -50 147
-117 193 -136 15 -6 28 -15 28 -19 0 -15 -94 -40 -149 -40 -72 0 -149 37 -251
119 -41 34 -79 59 -85 58 -21 -7 -58 -123 -63 -196 -3 -41 3 -159 13 -261 10
-103 16 -194 12 -203 -16 -41 -132 -10 -189 50 -54 57 -104 201 -128 374 -7
46 -16 88 -20 92 -10 11 -149 -142 -211 -233 -90 -132 -177 -332 -239 -547
-15 -54 -25 -73 -38 -73 -22 0 -122 57 -128 74 -3 7 -8 112 -12 233 -4 122
-10 225 -14 229 -13 12 -120 -66 -211 -155 -88 -85 -141 -151 -312 -389 -49
-67 -95 -122 -103 -122 -7 0 -47 10 -88 22 -70 20 -74 23 -74 50 0 85 56 273
129 431 22 48 37 87 33 87 -4 0 -32 -9 -62 -21 -119 -45 -262 -123 -414 -225
-87 -58 -177 -115 -200 -125 -49 -22 -133 -25 -181 -5 -31 13 -35 19 -35 50 0
85 65 192 214 354 47 51 86 96 86 100 0 16 -74 33 -161 39 -106 7 -181 -8
-376 -77 -206 -72 -393 -101 -435 -68 -20 17 -48 91 -48 129 0 23 10 42 38 69
45 45 124 73 272 96 58 9 106 18 108 19 10 9 -34 69 -83 114 -75 68 -159 107
-412 190 -206 68 -353 132 -388 171 -23 26 -11 41 64 77 46 22 74 28 152 31
109 5 191 -9 381 -63 66 -19 126 -35 133 -35 18 0 10 49 -22 150 -63 194 -200
346 -377 417 -33 13 -99 37 -146 53 -120 40 -172 64 -194 89 -17 18 -18 26 -8
59 27 90 137 169 250 179 115 11 236 -22 441 -119 68 -32 127 -58 131 -58 12
0 -9 110 -35 183 -13 38 -39 94 -57 125 -51 86 -189 224 -335 334 -73 55 -133
105 -133 111 0 6 9 30 20 53 38 78 136 124 266 124 145 0 249 -72 452 -313 48
-58 84 -93 87 -85 26 75 45 319 34 431 -12 132 -31 193 -108 357 -70 147 -99
225 -89 236 10 9 89 -35 166 -93 88 -67 168 -166 286 -353 49 -77 92 -137 96
-133 11 13 48 114 65 178 22 86 31 286 16 382 -20 128 -69 262 -138 376 -19
32 -33 61 -30 64 9 8 97 -24 152 -56 115 -67 217 -188 301 -358 27 -54 50
-100 52 -103 13 -20 69 163 83 275 20 153 9 253 -56 500 -55 208 -58 227 -59
345 l-1 125 30 -3 c50 -6 111 -41 167 -96 62 -61 101 -117 206 -300 83 -146
137 -226 150 -226 10 0 92 254 123 380 27 110 37 339 19 447 -7 43 -21 107
-32 141 -11 35 -17 66 -14 69 3 3 35 -11 71 -32 76 -42 182 -138 257 -233 l52
-65 29 64 c47 105 87 233 97 315 13 102 1 171 -61 362 -28 85 -48 156 -45 159
9 9 63 -35 115 -94 66 -74 116 -173 186 -368 32 -88 64 -173 72 -189 l15 -29
29 89 c39 119 75 287 89 409 17 141 7 242 -50 508 -32 148 -35 177 -20 177 5
0 58 -58 117 -129 59 -71 111 -130 116 -130 13 -2 8 350 -8 445 -25 157 -89
326 -175 460 -44 70 -40 78 26 49 88 -39 189 -111 289 -207 l92 -88 7 143 c6
135 -3 267 -22 332 -12 39 -58 134 -76 158 -14 18 -19 17 -133 -22 -148 -50
-228 -69 -373 -86 -138 -17 -306 -19 -454 -5 -60 6 -111 9 -113 7 -2 -3 41
-33 97 -67 55 -34 100 -65 100 -68 -1 -26 -40 -153 -54 -175 -23 -34 -102 -71
-208 -98 -66 -17 -123 -22 -278 -25 l-195 -4 -23 -39 c-36 -63 -93 -107 -153
-121 -30 -6 -126 -14 -214 -17 -259 -9 -491 32 -753 132 -66 25 -122 45 -126
45 -4 0 13 -38 37 -85 l44 -85 -53 -62 c-53 -62 -54 -63 -116 -69 -35 -4 -102
-7 -149 -8 -47 0 -107 -4 -132 -7 l-46 -7 -62 -106 c-105 -180 -248 -376 -420
-576 -114 -134 -180 -205 -533 -575 -166 -174 -349 -370 -407 -435 -616 -697
-1036 -1457 -1270 -2303 -70 -254 -76 -265 -323 -557 -258 -305 -412 -456
-560 -548 l-59 -36 -51 40 c-200 159 -718 675 -755 753 -43 87 -28 220 32 285
62 67 409 346 707 568 259 193 286 217 309 261 46 91 35 173 -44 338 -75 159
-171 295 -240 340 -31 21 -77 32 -97 25 -15 -5 -9 -24 48 -146 60 -126 104
-257 104 -307 0 -49 -92 -156 -232 -269 -187 -150 -348 -248 -443 -269 -50
-11 -141 -5 -150 10 -6 9 33 104 109 265 123 258 121 252 120 410 -1 194 -34
317 -142 530 -79 154 -143 205 -285 226 -88 14 -174 -4 -241 -51 -38 -26 -63
-56 -53 -66 1 -2 58 -15 126 -29 193 -41 191 -40 228 -114 60 -120 78 -208 78
-376 0 -127 -4 -162 -23 -230 -32 -111 -84 -204 -152 -272 -63 -62 -157 -120
-182 -111 -11 5 -20 50 -37 190 -26 217 -41 282 -87 365 -75 135 -249 339
-320 376 -48 25 -140 37 -272 37 l-124 0 69 -56 c230 -187 327 -324 387 -544
52 -191 60 -254 60 -455 1 -221 -15 -299 -79 -400 -57 -90 -225 -252 -335
-325 -193 -127 -370 -200 -483 -200 -188 0 -412 85 -621 235 l-78 55 7 -32
c11 -52 52 -137 93 -190 98 -130 360 -281 558 -323 105 -23 303 -23 407 -1
167 36 350 116 526 229 108 70 97 73 158 -47 48 -94 88 -205 163 -441 107
-340 216 -618 337 -859 l59 -118 -32 -87 c-90 -240 -91 -505 -3 -699 34 -75
101 -171 157 -225 35 -34 40 -36 47 -20 16 38 17 238 1 358 -18 135 -19 155
-8 155 13 0 68 -100 117 -215 26 -60 63 -140 81 -176 60 -121 68 -170 66 -397
l-1 -203 56 51 c78 71 109 112 134 178 28 74 30 205 5 365 -10 65 -16 121 -12
125 8 7 63 -51 163 -175 36 -46 68 -83 70 -83 2 0 1 26 -3 58 -8 77 -35 170
-99 332 -52 133 -84 245 -72 256 3 3 95 21 204 40 379 65 563 107 742 168
l102 35 8 -22 c5 -12 20 -55 35 -95 61 -170 176 -408 277 -572 243 -396 623
-792 1054 -1098 55 -39 105 -76 112 -82 7 -5 16 -10 22 -10 5 0 11 -4 13 -8 9
-21 324 -209 488 -292 l80 -40 1240 0 c705 0 1240 4 1240 9 0 5 -7 25 -15 44
-25 61 -21 70 49 100 35 16 98 51 141 79 42 27 79 48 81 45 10 -10 33 -163 34
-219 l0 -58 1385 0 1385 0 0 4948 0 4949 -82 17 c-166 33 -361 49 -498 40z
m-220 -792 c0 -5 -10 -92 -22 -193 -18 -150 -22 -239 -22 -479 -1 -498 38
-915 189 -2030 130 -959 174 -1385 191 -1840 13 -361 -32 -814 -117 -1170 -33
-138 -133 -448 -154 -477 -27 -36 -27 -1 -2 94 164 615 189 1308 82 2278 -24
209 -45 375 -150 1155 -83 614 -114 974 -122 1410 -6 342 2 544 33 810 14 127
59 410 69 438 5 13 25 17 25 4z m-1780 -1331 c0 -33 -166 -351 -251 -481 -272
-417 -533 -703 -1316 -1441 -527 -498 -666 -651 -874 -963 -108 -162 -255
-447 -314 -610 -77 -210 -130 -445 -156 -695 -14 -132 -2 -301 37 -544 27
-174 29 -200 12 -195 -15 5 -79 234 -113 403 -33 165 -47 360 -35 488 47 465
194 872 463 1277 209 315 390 507 977 1036 596 537 845 784 1087 1074 174 209
346 458 428 619 25 51 55 68 55 32z m-1682 -610 c22 -44 61 -112 87 -151 25
-40 44 -75 41 -78 -9 -9 -177 -32 -237 -32 -69 0 -146 36 -187 88 -32 41 -92
154 -92 174 0 10 26 13 103 13 93 1 108 4 167 32 36 17 68 32 72 32 4 1 25
-35 46 -78z m-1107 -168 c38 -12 91 -17 181 -17 122 -1 128 -2 128 -21 0 -36
29 -135 61 -207 17 -38 28 -72 26 -75 -3 -3 -41 -9 -84 -15 -79 -10 -153 -4
-187 14 -38 20 -108 93 -128 132 -32 62 -70 206 -55 206 2 0 28 -8 58 -17z
m517 -619 c53 14 98 24 100 22 2 -2 7 -34 13 -70 12 -86 39 -161 83 -235 20
-32 36 -64 36 -70 0 -19 -51 -26 -180 -26 -111 0 -130 3 -167 23 -110 58 -160
129 -196 274 -15 59 -27 111 -27 116 0 5 55 -6 121 -25 l122 -35 95 26z
m-1442 -1479 c43 -85 75 -157 73 -159 -3 -3 -59 -13 -124 -22 -144 -20 -180
-14 -249 47 -39 34 -136 177 -136 200 0 3 40 9 89 13 99 7 170 26 216 55 17
11 35 20 41 20 7 1 47 -69 90 -154z m58 -520 c15 -24 53 -80 86 -124 33 -43
60 -86 60 -94 0 -16 -92 -58 -169 -78 -87 -21 -179 9 -243 79 -36 39 -108 155
-108 173 0 5 29 9 64 9 67 0 165 26 226 60 19 10 40 19 47 20 6 0 23 -20 37
-45z m-701 -435 c15 -33 55 -93 87 -135 33 -41 60 -79 60 -84 0 -5 -30 -25
-67 -43 -56 -27 -79 -33 -133 -33 -80 0 -165 38 -208 93 -35 44 -112 169 -112
181 0 4 35 11 78 14 46 4 112 18 162 35 47 17 90 30 95 31 6 1 23 -26 38 -59z
m730 -573 c51 -52 105 -95 145 -115 34 -18 62 -39 62 -46 0 -29 -107 -119
-195 -162 -105 -53 -107 -53 -233 7 -70 34 -102 56 -164 120 -43 43 -78 82
-78 87 0 5 35 16 78 24 102 20 174 55 242 117 30 28 56 50 58 51 1 0 39 -37
85 -83z m-689 -633 c43 -68 114 -137 201 -193 43 -28 81 -51 86 -51 43 0 -88
-109 -196 -163 -27 -14 -66 -28 -87 -32 -54 -10 -175 12 -232 43 -53 28 -226
188 -226 209 0 7 19 17 43 23 171 45 203 56 257 91 32 21 71 56 86 78 15 23
29 41 33 41 3 0 19 -21 35 -46z m934 -360 c65 -54 193 -124 226 -124 24 0 20
-21 -14 -73 -108 -162 -291 -216 -457 -136 -51 25 -176 136 -170 152 2 6 25
18 53 27 96 33 151 68 215 139 35 39 67 70 72 71 4 0 38 -25 75 -56z m4442
-494 c0 -23 -174 -155 -315 -240 -526 -316 -1249 -407 -1880 -237 -208 56
-525 191 -525 224 0 19 13 17 177 -27 190 -52 405 -95 563 -115 148 -18 571
-20 736 -4 342 33 705 146 1064 329 156 79 180 89 180 70z m-4803 -346 c37
-28 204 -114 222 -114 47 0 -79 -142 -163 -184 -51 -26 -64 -28 -134 -24 -58
4 -90 12 -132 33 -67 34 -110 63 -110 76 0 5 19 21 43 35 81 51 147 107 183
155 20 27 41 49 46 49 6 0 26 -12 45 -26z m5320 -402 c144 -120 178 -185 172
-325 -3 -65 -10 -94 -32 -138 -28 -57 -104 -149 -124 -149 -6 0 -27 34 -46 75
-40 83 -95 143 -175 190 -29 17 -52 34 -52 39 0 5 18 32 39 60 46 60 104 177
122 247 7 27 18 49 25 49 7 0 39 -22 71 -48z m-2308 -219 c16 -20 44 -66 62
-102 29 -58 32 -75 33 -151 0 -102 -20 -154 -86 -226 -40 -43 -172 -144 -188
-144 -4 0 -11 54 -15 121 l-7 121 -69 76 c-38 42 -69 79 -69 82 0 3 18 15 39
27 22 13 75 61 118 108 68 75 122 121 145 124 3 1 20 -15 37 -36z m1088 -65
c38 -40 78 -88 87 -106 41 -79 39 -198 -5 -288 -22 -47 -163 -204 -183 -204
-6 0 -18 31 -28 69 -24 100 -65 177 -132 243 l-59 59 24 17 c83 58 167 166
191 244 6 21 16 38 23 38 6 0 43 -33 82 -72z m-1812 -365 c9 -27 19 -85 22
-130 5 -75 3 -87 -21 -137 -31 -63 -83 -112 -172 -162 -89 -50 -90 -49 -97 54
-3 56 -16 119 -33 172 -20 60 -25 85 -16 88 7 2 61 33 120 69 97 59 156 90
174 92 3 1 14 -20 23 -46z"/>
<path d="M13420 9713 c-47 -8 -251 -61 -257 -66 -9 -10 37 -62 85 -94 26 -18
97 -51 157 -74 169 -63 216 -88 272 -146 l52 -53 15 22 c42 60 0 176 -112 304
-99 113 -118 123 -212 107z"/>
</g>
</svg>
